<?xml version="1.0" encoding="UTF-8"?>
<svg id="_图层_1" data-name=" 图层 1" xmlns="http://www.w3.org/2000/svg" xmlns:xlink="http://www.w3.org/1999/xlink" viewBox="0 0 1715 557">
  <defs>
    <style>
      .cls-1 {
        fill: #3d47ca;
      }

      .cls-2 {
        fill: url(#_未命名的渐变);
      }

      .cls-3 {
        fill: url(#_未命名的渐变_2);
      }
    </style>
    <radialGradient id="_未命名的渐变" data-name="未命名的渐变" cx="489.5" cy="-590" fx="489.5" fy="-590" r="80.9" gradientTransform="translate(0 -384.6) scale(1 -1)" gradientUnits="userSpaceOnUse">
      <stop offset="0" stop-color="#00a3ff"/>
      <stop offset="1" stop-color="#3d47ca"/>
    </radialGradient>
    <linearGradient id="_未命名的渐变_2" data-name="未命名的渐变 2" x1="573" y1="-121.95" x2="1645.6" y2="-121.95" gradientTransform="translate(0 80.2) scale(1 -1)" gradientUnits="userSpaceOnUse">
      <stop offset="0" stop-color="#00a3ff"/>
      <stop offset="1" stop-color="#3d47ca"/>
    </linearGradient>
  </defs>
  <polygon class="cls-2" points="504.7 190.2 489.5 124.5 474.3 190.2 408.6 205.4 474.3 220.6 474.3 220.6 474.3 220.6 489.5 286.3 504.7 220.6 504.7 220.6 504.7 220.6 570.4 205.4 504.7 190.2"/>
  <path d="M190.5,226.5v-68l-33.5-16.8c-18.4-9.2-33.6-16.7-33.8-16.6,0,0-15.2,7.5-33.5,16.7l-33.2,16.7.2,34,.3,34,33.2,16.8,33.2,16.7,33.6-16.7,33.5-16.8h0Z"/>
  <path d="M464.2,230.7l-109.5-25.3,105.1-24.3-35.3-17.6c-35.7-17.9-65.3-32.5-65.7-32.4-.5,0-29.9,14.6-65.5,32.5l-64.8,32.4v39.5l36.5,18.3,36.5,18.3v90.9l29,14.5,29,14.5,65-32.5,62.3-31.1-22.6-97.7h0Z"/>
  <path d="M204.2,257.1c-.1,0-15.2,7.5-33.5,16.7l-33.2,16.7.2,34,.3,34,33.2,16.8,33.2,16.7,33.6-16.7,33.5-16.8v-68l-33.5-16.8c-18.4-9.2-33.6-16.7-33.8-16.6h0Z"/>
  <g>
    <path class="cls-1" d="M902.78,130.41c-.22,0-.44-.01-.66-.04-1.11-.05-2.13-.57-2.66-.88-1.51-.9-2.52-2.47-2.93-4.52-.35-1.86-.27-3.5.25-5.18l.04-.12.05-.12c1.43-3.14,2.53-6.62,3.26-10.35.81-3.87,1.39-7.5,1.77-11.13.36-3.54.58-7.14.69-11.34l.02-.65c.09-3.67.18-7.13.18-10.7v-27.2c0-.89,0-2.1.84-3.15l.6-.75c.22-.34.46-.65.73-.99.65-.78,1.39-1.31,2.31-1.65.73-.39,1.57-.57,2.63-.57,1.12,0,1.99.2,2.76.64.74.38,1.31.8,1.96,1.44.75.75,1.07,1.5,1.38,2.23l.04.09c.38.89.56,1.75.56,2.69v27.4c0,3.54,0,7.55-.2,11.79-.23,4.75-.55,8.85-1.01,12.93-.52,4.59-1.37,9.19-2.12,13.15-.88,4.31-2.16,8.43-3.92,12.6-.5,1.17-1.11,2.03-1.87,2.66-.65.54-1.42,1.09-2.69,1.4-.62.16-1.29.3-2,.3Z"/>
    <path class="cls-1" d="M905.4,46.28c.3-.6.6-1.1,1.1-1.7s1-.9,1.6-1.1c.5-.3,1.1-.4,1.8-.4s1.3.1,1.8.4c.6.3,1,.6,1.5,1.1s.7,1,1,1.7.4,1.3.4,1.9v27.4c0,3.6,0,7.5-.2,11.7s-.5,8.4-1,12.8-1.3,8.8-2.1,13c-.9,4.4-2.2,8.4-3.8,12.2-.3.7-.7,1.4-1.3,1.9s-1.1.8-1.9,1-1.4.3-2,.2c-.6,0-1.3-.3-1.8-.6-1-.6-1.7-1.7-2-3.2-.3-1.6-.2-2.9.2-4.2,1.6-3.5,2.7-7.2,3.4-10.8.8-3.8,1.4-7.5,1.8-11.3.4-3.9.6-7.6.7-11.5s.2-7.6.2-11.4v-27.2c0-.7,0-1.4.4-1.9h.2,0Z"/>
    <path class="cls-1" d="M915.2,53.87c-.85,0-1.75-.14-2.53-.4-.75-.25-1.33-.65-1.85-1.01l-.33-.22c-.85-.57-1.44-1.33-1.82-2.33-.39-.72-.57-1.5-.57-2.43,0-.72,0-1.71.74-2.81.27-.46.67-1.13,1.35-1.8.87-.87,1.78-1.19,2.56-1.41.9-.26,1.68-.38,2.45-.38h72.4c.93,0,1.84.14,2.63.4.79.27,1.42.63,2.18,1.13.99.66,1.4,1.49,1.7,2.1l.08.17c.42.85.61,1.65.61,2.59,0,.72,0,1.61-.74,2.71-.27.46-.67,1.13-1.35,1.8-.75.75-1.54,1.22-2.56,1.51-.71.24-1.62.38-2.55.38h-72.4Z"/>
    <path class="cls-1" d="M910.5,45.78c.3-.5.6-1,1.1-1.5s1-.7,1.7-.9,1.3-.3,1.9-.3h72.4c.7,0,1.4.1,2,.3s1.1.5,1.7.9.8.9,1.1,1.5.4,1.1.4,1.7,0,1-.4,1.6c-.3.5-.6,1-1.1,1.5s-1,.8-1.7,1c-.6.2-1.3.3-2,.3h-72.4c-.6,0-1.3-.1-1.9-.3s-1.1-.6-1.7-1-.9-.9-1.1-1.5c-.3-.5-.4-1-.4-1.6s0-1.1.4-1.7Z"/>
    <path class="cls-1" d="M920.03,121.37c-.48,0-.97-.04-1.46-.12-1.84-.31-3.24-1.14-3.95-2.37-1.24-1.62-1.44-3.69-.58-5.85.71-1.77,2.06-3.23,4.13-4.47,2.42-1.33,4.35-2.46,5.96-3.48,2.3-1.42,4.02-2.64,5.59-3.95l.45-.37c1.62-1.34,3.14-2.61,4.56-3.95,1.46-1.46,2.7-2.88,3.87-4.44l.08-.1c.85-.99,2.17-1.88,3.53-2.38l.33-.12h.46c.66-.18,1.32-.27,1.95-.27s1.23.09,1.78.28l.08.03.08.03c.82.35,1.75.75,2.53,1.52.78.78,1.26,1.72,1.44,2.8.25.94.25,1.89.03,2.83-.11,1.21-.82,2.22-1.45,2.97-1.48,1.85-3.31,4.04-5.5,6.01-1.82,1.73-4.05,3.78-6.46,5.53l-.61.44c-2.05,1.49-4.17,3.04-6.41,4.44-2.43,1.62-4.91,2.96-7.31,4.26-.87.49-1.93.74-3.12.74Z"/>
    <path class="cls-1" d="M943,91.88c1.1-.4,2.2-.5,3.1-.2.7.3,1.4.6,1.9,1.1s.8,1.1.9,1.8c.2.7.2,1.4,0,2.1,0,.7-.5,1.4-1,2-1.6,2-3.3,4-5.3,5.8-2,1.9-4.1,3.8-6.3,5.4s-4.5,3.3-6.9,4.8c-2.4,1.6-4.8,2.9-7.2,4.2-.9.5-2.1.6-3.3.4s-2.2-.7-2.6-1.5c-.9-1.1-1-2.5-.4-4s1.8-2.6,3.3-3.5c2-1.1,4.1-2.3,6-3.5,2.1-1.3,4-2.6,5.8-4.1s3.5-2.9,5.1-4.4c1.6-1.6,2.9-3.1,4.1-4.7.6-.7,1.6-1.4,2.7-1.8h.1v.1Z"/>
    <path class="cls-1" d="M922.8,97.68c-1.9,0-3.48-.59-4.84-1.81-1.52-1.37-2.26-2.74-2.26-4.19,0-1.66.91-3.31,2.42-4.42,1.31-1.05,3.04-1.68,4.68-1.68h65.3c1.9,0,3.48.59,4.84,1.81,1.52,1.37,2.26,2.77,2.26,4.29,0,1.17-.42,2.86-2.42,4.32-1.51,1.1-3.13,1.68-4.68,1.68h-65.3Z"/>
    <path class="cls-1" d="M919.3,88.88c1-.8,2.3-1.3,3.5-1.3h65.3c1.4,0,2.5.4,3.5,1.3s1.6,1.8,1.6,2.8-.5,1.9-1.6,2.7-2.3,1.3-3.5,1.3h-65.3c-1.4,0-2.5-.4-3.5-1.3s-1.6-1.8-1.6-2.7.5-2,1.6-2.8Z"/>
    <path class="cls-1" d="M921.84,83.99c-.14,0-.29,0-.43-.02-1.83-.02-3.17-.54-3.98-1.55-1.28-1.64-1.32-3.68-.14-5.6,1.04-1.68,2.21-3.08,3.6-4.27l.11-.1.13-.08c1.06-.66,2.07-1.51,3.13-2.41.39-.33.79-.67,1.21-1,1.49-1.4,2.71-2.72,3.86-4.14.55-.63,1.18-1.21,1.86-1.71v-.38l1.11-.55c.94-.47,1.84-.71,2.67-.71.42,0,.82.06,1.19.18,1.29.36,1.94,1.43,2.15,1.79.47.78.69,1.61.69,2.63,0,.65,0,1.38-.28,2.35-.26.92-.67,1.74-1.21,2.44-1.58,2.31-3.36,4.39-5.43,6.36-1.61,1.53-4,3.74-6.19,5.36-1.13.88-2.62,1.4-4.05,1.4Z"/>
    <path class="cls-1" d="M933.2,63.98c1-.5,1.8-.6,2.4-.4.4.1.7.4,1,.9s.4,1,.4,1.6,0,1.1-.2,1.8-.5,1.3-.9,1.8c-1.5,2.2-3.2,4.2-5.2,6.1s-4.1,3.8-6,5.2c-.9.7-2.1,1.1-3.2,1-1.3,0-2.1-.3-2.5-.8-.7-.9-.8-2,0-3.3s1.8-2.6,3.2-3.8c1.6-1,3-2.3,4.6-3.6,1.6-1.5,2.9-2.9,4.1-4.4.7-.8,1.6-1.5,2.5-2h-.2v-.1Z"/>
    <path class="cls-1" d="M923.9,68.27c-1.89,0-3.44-.45-4.75-1.36-1.56-1.09-2.45-2.56-2.45-4.04,0-1.58.92-3.07,2.53-4.09,1.2-.84,2.84-1.31,4.67-1.31h23.7c1.84,0,3.32.43,4.65,1.36,1.56,1.09,2.45,2.56,2.45,4.04,0,1.58-.92,3.07-2.53,4.09-1.18.83-2.83,1.31-4.57,1.31h-23.7Z"/>
    <path class="cls-1" d="M920.3,60.48c1-.7,2.3-1,3.6-1h23.7c1.4,0,2.5.3,3.5,1s1.6,1.6,1.6,2.4-.5,1.7-1.6,2.4c-1,.7-2.3,1-3.5,1h-23.7c-1.4,0-2.6-.3-3.6-1s-1.6-1.6-1.6-2.4.5-1.7,1.6-2.4Z"/>
    <path class="cls-1" d="M936.9,133.08c-.77,0-1.64,0-2.7-.66-.64-.33-1.33-.73-2.02-1.42-.65-.65-1.1-1.34-1.52-2.33-.38-.89-.56-1.75-.56-2.69v-17.1h-1.04l1.45-2.89c.41-.82.8-1.43,1.35-2.09.79-.95,1.63-1.31,2.38-1.63.97-.48,2.04-.59,2.76-.59h45.3c.71,0,1.91,0,3.01.74.18.12.36.22.53.32.39.23.84.48,1.35.91.84.7,1.37,1.48,1.69,2.52.43.96.53,1.94.53,2.62v17.1c0,.69,0,1.82-.66,2.89-.31.6-.63,1.15-1.08,1.82-.72,1.08-1.62,1.46-2.41,1.8-.94.4-1.81.59-2.65.59h-.3c-.76,0-1.9,0-3.01-.74l-.43-.28c-.44-.29-.86-.56-1.31-.92-.75-.6-1.28-1.43-1.62-2.54-.46-1.01-.53-2-.53-2.52v-12.9h-31.7v12.9c0,.73,0,1.82-.66,2.89-.31.6-.62,1.14-1.08,1.82-.72,1.08-1.62,1.46-2.41,1.8-.82.41-1.62.59-2.65.59Z"/>
    <path class="cls-1" d="M932.3,106.88c.3-.6.6-1.1,1.1-1.7s1-.8,1.7-1.1c.6-.3,1.3-.4,1.9-.4h45.3c.6,0,1.3,0,1.9.4s1.1.6,1.7,1.1.9,1,1.1,1.7c.3.6.4,1.3.4,1.9v17.1c0,.6,0,1.3-.4,1.9-.3.6-.6,1.1-1,1.7s-.9.8-1.6,1.1-1.3.4-1.8.4h-.3c-.6,0-1.3,0-1.9-.4s-1.1-.7-1.6-1.1-.8-1-1-1.7c-.3-.6-.4-1.3-.4-1.8v-14.4s0-.2-.2-.3c0,0-.3-.2-.4-.2h-34.5s-.3,0-.4.2c0,0-.2.2-.2.3v14.4c0,.6,0,1.3-.4,1.9-.3.6-.6,1.1-1,1.7s-.9.8-1.6,1.1c-.6.3-1.1.4-1.8.4s-1.1,0-1.7-.4c-.6-.3-1.1-.6-1.6-1.1s-.8-1-1.1-1.7-.4-1.3-.4-1.9v-17.2c0-.6,0-1.3.4-1.9h-.2Z"/>
    <path class="cls-1" d="M937,87.87c-1.71,0-3.28-.86-4.42-2.42-1.13-1.56-1.68-3.05-1.68-4.58v-21.7c0-1.55.43-2.9,1.3-4.11v-.2l.44-.55c1.21-1.52,2.76-2.35,4.36-2.35,1.03,0,1.5.11,2.18.5.06.03.12.07.21.11.91.46,1.43.97,1.97,1.64.61.77.91,1.52,1.16,2.4.26.9.38,1.68.38,2.45v21.7c0,.71,0,1.77-.51,2.79-.14.28-.25.53-.37.79-.13.3-.27.59-.43.91-.6,1.2-1.48,1.64-2.19,2-.79.4-1.41.61-2.39.61Z"/>
    <path class="cls-1" d="M934.2,55.58c.8-1,1.8-1.6,2.8-1.6s.9.1,1.5.4.9.6,1.3,1.1.6,1,.8,1.7.3,1.3.3,1.9v21.7c0,.6,0,1.3-.3,1.9s-.5,1.1-.8,1.7-.7.8-1.3,1.1-.9.4-1.5.4c-1,0-2-.5-2.8-1.6s-1.3-2.2-1.3-3.4v-21.7c0-1.3.4-2.4,1.3-3.4v-.2Z"/>
    <path class="cls-1" d="M942.7,129.98c-1.72,0-3.24-.48-4.65-1.46-1.54-1.07-2.45-2.66-2.45-4.24,0-1.66.9-3.15,2.53-4.19,1.25-.88,2.95-1.41,4.57-1.41h34.6c1.72,0,3.24.48,4.65,1.46,1.56,1.09,2.45,2.6,2.45,4.14,0,1.68-.94,3.28-2.53,4.29-1.45.92-3.03,1.41-4.57,1.41h-34.6Z"/>
    <path class="cls-1" d="M939.2,121.78c1-.7,2.3-1.1,3.5-1.1h34.6c1.4,0,2.5.4,3.5,1.1s1.6,1.6,1.6,2.5-.5,1.9-1.6,2.6-2.3,1.1-3.5,1.1h-34.6c-1.4,0-2.5-.4-3.5-1.1s-1.6-1.7-1.6-2.6.5-1.8,1.6-2.5Z"/>
    <path class="cls-1" d="M948.74,79.79c-.17,0-.35,0-.53-.02-1.7-.02-3.27-.66-4.65-1.91l-.08-.07c-.19-.19-.43-.4-.7-.63-.4-.34-.9-.77-1.4-1.27-.39-.39-.84-.71-1.28-1.02-.33-.23-.63-.45-.88-.66-1.49-1.22-2.57-2.81-2.96-4.35-.47-1.89.03-3.68,1.34-4.8l.1-.08c.95-.71,2.1-.8,3-.8h.2v.1c.97.03,1.91.27,2.79.71l.11.06.3.2c.26.18.52.36.89.54.54.27.95.58,1.3.85.16.12.32.25.51.37.26.17.49.35.72.52.27.2.46.35.67.45.55.27.93.59,1.21.82.08.07.16.14.25.2.95.44,1.78,1.14,2.36,1.98.5.64.9,1.41,1.18,2.25.25.76.4,1.37.4,2.23,0,.71,0,1.6-.84,2.65l-.07.09-.08.08c-.98.98-2.32,1.51-3.87,1.51Z"/>
    <path class="cls-1" d="M940.7,66.28c.8,0,1.5.2,2.1.5.3.2.7.5,1.3.8s1,.7,1.6,1.1,1,.8,1.6,1.1.9.7,1.4,1c.7.3,1.3.8,1.7,1.4.4.5.7,1.1.9,1.7s.3,1,.3,1.6,0,.9-.4,1.4c-.7.7-1.7,1-2.9.9-1.3,0-2.4-.5-3.4-1.4-.5-.5-1.3-1.1-2.1-1.9s-1.7-1.3-2.3-1.8c-1.1-.9-2-2.1-2.3-3.3s0-2.2.7-2.8c.4-.3,1-.4,1.8-.4h.2-.2v.1Z"/>
    <path class="cls-1" d="M952.24,49.38c-1.1,0-2.22-.25-3.43-.77l-.11-.05c-1.73-.86-2.91-2.22-3.42-3.91l-.08-.28v-.13s-.02-.06-.04-.09c-.08-.22-.2-.52-.29-.9l-.57-1.44-.03-.11c-.19-.69-.23-1.41-.14-2.13h-1.16l2.31-3.18c1.15-1.58,2.82-2.7,4.6-3.08l.21-.04h.78c.35-.1.69-.15,1.04-.15.37,0,.74.05,1.15.17.74.08,1.35.39,1.89.67l.24.12c.68.34,1.11.7,1.49,1.01l.35.29.08.08c.64.64,1.03,1.36,1.22,2.25.17.41.33.81.56,1.27.32.63.56,1.13.81,1.86l.1.31v2.12c0,1.01-.39,1.77-.71,2.39l-.1.21c-.33.65-.71,1.08-1.03,1.41-.1.11-.2.21-.3.34l-.14.17-.17.14c-.78.63-1.55.91-2.21,1.14l-.31.1h-.87c-.57.14-1.14.21-1.72.21Z"/>
    <path class="cls-1" d="M946.9,37.58c.8-1.1,2-2,3.4-2.3h.9c.5-.2.9-.2,1.5,0,.5,0,1,.3,1.6.6.6.3.9.6,1.4,1,.4.4.6.8.7,1.4.2.5.4,1,.7,1.6s.5,1,.7,1.6v1.8c0,.6-.3,1.1-.6,1.7s-.7.9-1.1,1.4c-.5.4-1,.6-1.6.8h-.8c-1.4.4-2.7.2-4.1-.4-1.4-.7-2.1-1.7-2.4-2.7,0-.4-.3-.8-.4-1.4-.2-.5-.4-1-.6-1.5-.3-1.1,0-2.3.8-3.4h0v-.2h-.1Z"/>
    <path class="cls-1" d="M957.9,84.27c-1.63,0-3.02-.49-3.91-1.39l-.09-.09-.08-.1c-1.18-1.52-1.34-3.51-.44-5.47.67-1.44,1.88-2.91,3.71-4.48l.11-.1.13-.08c1.06-.66,2.07-1.51,3.14-2.41.39-.33.79-.67,1.21-1,1.57-1.48,2.73-2.86,3.76-4.14.66-.76,1.43-1.43,2.26-1.99v-.3l1.11-.55c.93-.46,1.87-.71,2.74-.71.43,0,.84.06,1.22.18.61.17,1.63.66,2.19,2.08.23.57.54,1.36.54,2.34,0,.65,0,1.38-.28,2.35-.27.95-.7,1.79-1.26,2.5-1.83,2.51-3.57,4.59-5.45,6.46-2.11,2.11-4.31,3.98-6.37,5.42-1.18.92-2.72,1.46-4.25,1.46Z"/>
    <path class="cls-1" d="M969.7,63.98c1-.5,1.9-.6,2.5-.4.4.1.7.4.9.9s.4,1,.4,1.6,0,1.1-.2,1.8-.5,1.3-.9,1.8c-1.6,2.2-3.3,4.3-5.3,6.3s-4.1,3.8-6.1,5.2c-.9.7-2,1.1-3.1,1.1s-2-.3-2.5-.8c-.7-.9-.8-2.1-.2-3.4s1.8-2.6,3.2-3.8c1.6-1,3-2.3,4.6-3.6,1.6-1.5,2.8-2.9,4-4.4.7-.8,1.6-1.5,2.5-2l.3-.2h-.1v-.1Z"/>
    <path class="cls-1" d="M962.1,68.27c-1.75,0-3.24-.45-4.55-1.36-1.56-1.09-2.45-2.56-2.45-4.04,0-1.58.92-3.06,2.53-4.09,1.2-.84,2.77-1.31,4.47-1.31h25.6c1.84,0,3.32.43,4.65,1.36,1.56,1.09,2.45,2.56,2.45,4.04,0,1.58-.92,3.07-2.53,4.09-1.18.83-2.83,1.31-4.57,1.31h-25.6Z"/>
    <path class="cls-1" d="M958.7,60.48c1-.7,2.2-1,3.4-1h25.6c1.4,0,2.5.3,3.5,1s1.6,1.6,1.6,2.4-.5,1.7-1.6,2.4c-1,.7-2.3,1-3.5,1h-25.6c-1.3,0-2.4-.3-3.4-1s-1.6-1.6-1.6-2.4.5-1.7,1.6-2.4Z"/>
    <path class="cls-1" d="M973.7,87.68c-1.71,0-3.28-.86-4.42-2.42-1.1-1.51-1.68-3.13-1.68-4.68v-21.6c0-1.88.58-3.45,1.77-4.79,1.21-1.49,2.74-2.31,4.33-2.31,1.71,0,3.28.86,4.42,2.42,1.1,1.51,1.68,3.13,1.68,4.68v21.6c0,1.9-.59,3.48-1.81,4.84-1.37,1.52-2.77,2.26-4.29,2.26Z"/>
    <path class="cls-1" d="M970.9,55.48c.8-1,1.8-1.6,2.8-1.6s2,.5,2.8,1.6,1.3,2.3,1.3,3.5v21.6c0,1.4-.4,2.5-1.3,3.5s-1.8,1.6-2.8,1.6-2-.5-2.8-1.6-1.3-2.3-1.3-3.5v-21.6c0-1.4.4-2.5,1.3-3.5Z"/>
    <path class="cls-1" d="M989.31,83.39c-.16,0-.33,0-.5-.02-1.57-.02-2.96-.48-4.36-1.46-1.73-1.32-3.35-2.72-5.33-4.58-1.87-1.76-3.32-3.52-4.71-5.21-.75-.77-1.26-1.64-1.54-2.59-.23-.7-.38-1.59-.38-2.45,0-.74,0-1.65.58-2.63.41-.69.86-1.23,1.72-1.66l.07-.04.08-.03c.41-.16.87-.25,1.38-.25.65,0,1.39.14,2.2.41v.03c1.15.4,2.19,1.06,3.08,1.95l.08.08.07.09c.98,1.25,2.16,2.34,3.51,3.6l.08.07c1.57,1.36,2.84,2.31,4.07,3.05,1.87,1.17,3.27,2.71,4.09,4.48l.04.09c.88,2.21.66,4.08-.66,5.57-.79.94-2.07,1.49-3.58,1.49Z"/>
    <path class="cls-1" d="M977.8,64.78c.9.3,1.7.8,2.4,1.5,1.1,1.4,2.4,2.6,3.8,3.9,1.5,1.3,2.9,2.4,4.4,3.3,1.6,1,2.7,2.3,3.3,3.6.6,1.5.5,2.6-.3,3.5-.5.6-1.4.9-2.5.8-1.3,0-2.3-.4-3.3-1.1-1.7-1.3-3.3-2.7-5.1-4.4s-3.2-3.4-4.6-5.1c-.5-.5-.9-1.1-1.1-1.8-.2-.6-.3-1.3-.3-1.9s0-1.1.3-1.6.5-.7.9-.9c.5-.2,1.3-.1,2.2.2h-.1Z"/>
  </g>
  <g>
    <path class="cls-1" d="M1246.67,78.7c-.82,0-1.92,0-2.99-.66-.6-.31-1.15-.63-1.82-1.08-.99-.66-1.4-1.49-1.7-2.1l-.06-.11c-.42-.74-.64-1.63-.64-2.65,0-.72,0-1.71.74-2.81.27-.46.67-1.13,1.35-1.8.75-.75,1.54-1.22,2.56-1.51.91-.26,1.7-.38,2.55-.38h47.8c.83,0,1.87,0,2.89.51.64.32,1.21.66,1.92,1.12.99.66,1.39,1.49,1.69,2.1l.06.12c.42.74.64,1.63.64,2.65,0,.72,0,1.71-.73,2.81l-.24.36c-.29.45-.58.91-1.12,1.44-.71.71-1.45,1.16-2.39,1.46-.78.35-1.67.53-2.72.53h-47.8Z"/>
    <path class="cls-1" d="M1241.87,70.4c.3-.5.6-1,1.1-1.5s1-.8,1.7-1,1.3-.3,2-.3h47.8c.7,0,1.4,0,2,.3s1.1.6,1.7,1,.8.9,1.1,1.5c.3.5.4,1.1.4,1.7s0,1.1-.4,1.7-.6,1-1.1,1.5-1,.8-1.7,1c-.6.3-1.3.4-2,.4h-47.8c-.7,0-1.4,0-2-.4-.6-.3-1.1-.6-1.7-1s-.8-.9-1.1-1.5c-.3-.5-.4-1.1-.4-1.7s0-1.1.4-1.7Z"/>
    <path class="cls-1" d="M1247.17,68.2c-.58,0-1.52,0-2.44-.48-1.88-.73-3.16-2.29-3.62-4.4-.39-1.84-.22-3.76.5-5.56l.04-.11.05-.1c1.23-2.28,2.3-4.79,3.16-7.46.23-.71.46-1.43.7-2.16.66-2.02,1.34-4.1,1.92-6.15.07-.85.42-1.57.79-2.13v-.35l.44-.55c.35-.44.73-.79,1.09-1.13.15-.14.3-.28.46-.43l.08-.08.09-.07c.56-.45,1.35-.99,2.49-1.19.45-.13.92-.2,1.41-.2.45,0,.89.06,1.31.17.99.11,1.8.65,2.35,1.02.89.59,1.35,1.3,1.76,1.92l.09.14c.49.81.78,1.66.92,2.62.09.67.06,1.24.04,1.7,0,.16-.02.32-.02.48v.25l-.06.25c-.83,3.22-1.88,6.38-2.9,9.43l-.37,1.1-.24.6c-1.21,3.09-2.36,6-3.7,8.69-.29.69-.7,1.35-1.29,2.05-.88,1.06-1.85,1.4-2.69,1.64l-.29.08c-.66.19-1.35.39-2.06.39Z"/>
    <path class="cls-1" d="M1250.27,40c.4-.5.9-.9,1.4-1.4.5-.4,1-.7,1.7-.8.6-.2,1.3-.2,1.9,0,.5,0,1,.3,1.6.7s.9.9,1.3,1.5c.3.5.5,1.1.6,1.8s0,1.3,0,1.9c-.9,3.5-2.1,7-3.2,10.3-1.3,3.3-2.5,6.4-3.9,9.2-.2.5-.5,1-1,1.6s-1,.8-1.7,1-1.3.4-1.8.4-1.1,0-1.6-.3c-1.4-.5-2.2-1.6-2.5-3s-.2-2.9.4-4.4c1.3-2.4,2.4-5,3.3-7.8s1.9-5.7,2.7-8.6c0-.7.4-1.3.8-1.8v-.2h0v-.1Z"/>
    <path class="cls-1" d="M1250.37,124.8c-.91,0-1.54-.22-2.05-.4l-.49-.17-.19-.11c-.62-.37-1.18-.82-1.72-1.25l-.17-.14-.14-.17c-.47-.59-1.05-1.31-1.36-2.4-.26-.9-.38-1.68-.38-2.45v-26.6h-.94l1.45-2.89c.33-.67.74-1.39,1.48-2.12.65-.65,1.34-1.1,2.32-1.52.9-.38,1.75-.56,2.69-.56h40.4c.83,0,1.95,0,2.95.69.58.3,1.12.62,1.76,1.05.9.6,1.46,1.29,1.82,2.23.51.94.57,1.84.57,2.53,0,.8,0,1.71-.74,2.81l-.23.36c-.29.45-.58.91-1.12,1.45-.75.75-1.54,1.22-2.56,1.51-.9.26-1.68.38-2.45.38h-34.4v20.8c0,.59,0,1.47-.43,2.51-.31.9-.87,1.81-1.46,2.4-.6.6-1.26,1.08-1.96,1.44-.99.57-1.94.64-2.66.64Z"/>
    <path class="cls-1" d="M1246.17,89.1c.3-.6.6-1.1,1.1-1.6s1-.8,1.7-1.1,1.3-.4,1.9-.4h40.4c.7,0,1.4,0,1.9.4.6.3,1.1.6,1.7,1s.9.8,1.1,1.4c.3.5.4,1,.4,1.7s0,1.1-.4,1.7-.6,1-1.1,1.5-1,.8-1.7,1-1.3.3-1.9.3h-35.8s-.3,0-.4.2c0,0-.2.3-.2.4v22.2c0,.5,0,1.1-.3,1.8-.2.6-.6,1.3-1,1.7s-.9.8-1.5,1.1c-.5.3-1,.4-1.7.4s-1.1-.2-1.7-.4c-.5-.3-1-.7-1.5-1.1-.4-.5-.8-1-1-1.7s-.3-1.3-.3-1.9v-26.7c0-.7,0-1.4.4-1.9h-.1Z"/>
    <path class="cls-1" d="M1256.28,60.1c-.76,0-1.9-.1-2.99-.56-1.15-.49-2-1.16-2.58-2.03l-.19-.28c-.38-.56-.81-1.19-1.07-2.08-.23-.8-.46-1.97,0-3.15h-2.58l4-2.92v-1.08h1.54c1.08-.65,2.29-1,3.46-1h34.6c.86,0,1.75.14,2.53.4.75.25,1.33.65,1.85,1.01l.33.23c.99.66,1.4,1.49,1.7,2.1l.06.11c.42.74.64,1.63.64,2.65,0,.72,0,1.71-.74,2.81l-.23.36c-.29.45-.58.91-1.12,1.45-.71.71-1.45,1.16-2.39,1.46-.96.43-1.94.53-2.62.53h-34.2Z"/>
    <path class="cls-1" d="M1252.87,50.1c.9-.7,2-1.1,3-1.1h34.6c.6,0,1.3.1,1.9.3s1.1.6,1.7,1,.8.9,1.1,1.5c.3.5.4,1.1.4,1.7s0,1.1-.4,1.7-.6,1-1.1,1.5-1,.8-1.7,1c-.6.3-1.3.4-1.9.4h-34.2c-.7,0-1.5-.1-2.2-.4s-1.3-.7-1.7-1.3-.8-1.1-1-1.8-.3-1.4,0-2c.2-.9.8-1.9,1.8-2.6h-.3v.1Z"/>
    <path class="cls-1" d="M1270.87,133.1c-.84,0-2,0-3.05-.84-.16-.13-.33-.23-.5-.33-.31-.19-.7-.43-1.13-.79-.95-.79-1.31-1.64-1.63-2.38-.49-.97-.59-2.04-.59-2.76V40.2c0-.69,0-1.82.66-2.89.39-.77.78-1.36,1.3-1.99l.06-.07.06-.06c.73-.73,1.45-1.14,2.12-1.48.86-.43,1.66-.61,2.69-.61,1.15,0,2.05.22,2.83.68.62.37,1.18.82,1.72,1.25l.17.14.14.17c.44.55.99,1.23,1.31,2.22.44.96.53,1.95.53,2.63v85.8c0,.83,0,1.95-.69,2.95-.3.58-.62,1.12-1.05,1.76-.56.85-1.33,1.44-2.34,1.82-.73.39-1.57.57-2.63.57Z"/>
    <path class="cls-1" d="M1266.37,38.3c.3-.6.6-1.1,1.1-1.7.5-.5,1-.8,1.6-1.1s1.1-.4,1.8-.4,1.3.1,1.8.4c.5.3,1,.7,1.5,1.1.4.5.8,1,1,1.7.3.6.4,1.3.4,1.9v85.8c0,.7,0,1.4-.4,1.9-.3.6-.6,1.1-1,1.7s-.9.9-1.5,1.1c-.5.3-1.1.4-1.8.4s-1.3,0-1.8-.4-1-.6-1.6-1.1-.8-1-1.1-1.7c-.3-.6-.4-1.3-.4-1.9V40.2c0-.6,0-1.3.4-1.9Z"/>
    <path class="cls-1" d="M1283.39,125l-.36-.14c-.5-.2-1.07-.43-1.75-.77l-.14-.08c-.66-.4-1.18-.8-1.68-1.3l-.1-.1-.09-.11c-.37-.49-.75-1.04-.94-1.82-.51-1.76-.48-3.41.08-4.83.72-1.81,2.2-2.86,4.06-2.86h2.9v-21.5c0-.69,0-1.59.4-2.44v-1.96h.93c.19-.3.39-.58.61-.85.65-.81,1.43-1.27,2.17-1.64.88-.44,1.58-.61,2.5-.61,1.03,0,2.04.34,2.54.54l.15.06.14.08c.62.37,1.18.82,1.72,1.25l.09.07.08.08c.48.48,1.17,1.27,1.51,2.46.26.9.38,1.68.38,2.45v22.6c0,2.34-.24,4.23-.7,5.63-.49,1.61-1.69,3.03-3.55,4.17l-.11.07-.12.05c-1.03.46-2.27.81-3.68,1.04-1.38.21-2.77.32-4.72.42h-.06s-2.24,0-2.24,0Z"/>
    <path class="cls-1" d="M1287.87,89.1c.3-.6.6-1.1,1-1.6s.9-.8,1.5-1.1,1-.4,1.6-.4,1.3.2,1.8.4c.5.3,1,.7,1.5,1.1.4.4.8.9,1,1.6s.3,1.3.3,1.9v22.6c0,2.1-.2,3.8-.6,5-.4,1.3-1.4,2.3-2.7,3.1-.9.4-2,.7-3.2.9-1.3.2-2.7.3-4.5.4h-1.8c-.5-.2-1-.4-1.6-.7-.5-.3-.9-.6-1.3-1-.3-.4-.5-.7-.6-1.1-.4-1.4-.4-2.6,0-3.6s1.1-1.6,2.2-1.6h3.9c.4,0,.7-.2.8-.3,0-.2.2-.5.2-.9v-22.3c0-.7,0-1.4.4-1.9v-.3h0v-.2h.1Z"/>
    <path class="cls-1" d="M1310.58,103.8c-.75,0-2,0-3.05-.84-.16-.13-.33-.23-.5-.33-.31-.19-.7-.43-1.13-.79-1.06-.88-1.4-1.85-1.64-2.69-.26-.9-.38-1.68-.38-2.45v-48c0-.71,0-1.77.51-2.79h.03c.25-.57.57-1.05.87-1.48l.34-.5.14-.14c.73-.73,1.45-1.14,2.12-1.48.86-.43,1.66-.61,2.69-.61s1.7.17,2.59.61l.13.07c.61.37,1.17.81,1.71,1.25l.17.14.15.18c.44.56.99,1.24,1.31,2.22.44.96.53,1.95.53,2.63v47.9c0,.76,0,1.9-.73,3.01-.17.25-.29.48-.41.7-.18.32-.35.65-.59,1-.66.99-1.49,1.4-2.1,1.7l-.17.08c-.85.42-1.65.61-2.59.61Z"/>
    <path class="cls-1" d="M1306.17,46.9c.2-.6.6-1.1,1-1.7.5-.5,1-.8,1.6-1.1s1.1-.4,1.8-.4,1.1.1,1.7.4c.5.3,1,.7,1.5,1.1.4.5.8,1,1,1.7.3.6.4,1.3.4,1.9v47.9c0,.6,0,1.3-.4,1.9s-.6,1.1-1,1.7-.9.8-1.5,1.1-1.1.4-1.7.4-1.3,0-1.8-.4-1-.6-1.6-1.1-.8-1-1-1.7-.3-1.3-.3-1.9v-48c0-.6,0-1.3.3-1.9h0v.1Z"/>
    <path class="cls-1" d="M1316.58,132.8c-1.54,0-3.1-.63-4.39-1.77-.82-.67-2.2-1.98-2.62-3.65-.42-1.21-.41-2.52.03-3.63.32-1.07.71-1.91,1.18-2.52.7-1.01,1.66-1.58,2.52-2.01,1.26-.63,2.48-.71,3.39-.71,0,0,5.77,0,5.8,0,0-.03,0-77.3,0-77.3h-.83l1.35-2.89c.28-.56.6-1.01.91-1.45.11-.15.21-.3.32-.46.78-1.17,1.79-1.63,2.54-1.86.8-.37,1.56-.53,2.53-.53,1.12,0,1.99.2,2.75.64.65.33,1.35.74,2.06,1.44s1.16,1.45,1.46,2.4c.43.96.53,1.94.53,2.62v77.3c0,3.43-.37,5.88-1.17,7.7-.85,1.94-2.42,3.53-4.54,4.59-1.51.76-3.28,1.23-5.92,1.59-2.21.2-4.78.41-7.8.52h-.04s-.03,0-.03,0Z"/>
    <path class="cls-1" d="M1324.77,39.2c.3-.6.7-1.1,1.1-1.7s.9-.9,1.6-1.1c.6-.3,1.1-.4,1.8-.4s1.3.1,1.8.4c.6.3,1.1.6,1.6,1.1s.8,1,1,1.7c.3.6.4,1.3.4,1.9v77.3c0,3-.3,5.3-1,6.9s-2,2.8-3.6,3.6c-1.4.7-3.1,1.1-5.3,1.4-2.2.2-4.7.4-7.6.5-1,0-2.1-.4-3.1-1.3-1-.8-1.8-1.8-2-2.7-.3-.8-.3-1.7,0-2.4.2-.7.5-1.5.9-2,.4-.6,1-1,1.8-1.4s1.6-.5,2.5-.5h5.7c.8,0,1.4-.2,1.7-.4.3-.3.4-.8.4-1.7V41.1c0-.7,0-1.4.4-1.9h-.1Z"/>
  </g>
  <path d="M595.2,390c-.7-2.5-1.9-6-3.4-10.6-1.6-4.6-3.3-9.4-5.2-14.4s-3.6-9.3-5.2-12.8c6.3-1.3,12.1-3.2,17.7-6,5.6-2.7,12.9-6.9,22-12.4,5.1-2.8,12.4-7.4,21.8-13.8,9.4-6.4,19.7-14,31.3-22.9,11.5-9,23.1-18.8,34.9-29.5,11.8-10.6,22.9-21.9,33.2-33.7l36.6,24c-16,16.6-32.9,31.7-50.6,45.4-17.8,13.8-35.7,26.4-53.9,37.6-18.1,11.3-35.8,21.5-53,30.5v1c-5.2,2.3-9.5,4.4-12.9,6.1-3.4,1.8-6.5,3.6-9.1,5.7s-3.9,3.9-3.9,5.4l-.2.2v.2h-.1Z"/>
  <path d="M600.7,308.6c-.7-2.9-1.8-7-3.2-12.1-1.5-5.1-3-10.4-4.7-16s-3.3-10.3-4.9-14.3c3.8-.9,7.3-2.5,10.5-4.6,3.3-2.1,7-4.7,11-7.8,2.1-1.6,5.2-4.1,9.4-7.6,4.1-3.5,8.5-7.8,13.4-12.8s9.9-10.4,14.9-16.3c5.1-5.8,9.7-12,14-18.2l38.7,22.9c-10.6,12.3-22.7,24.3-36.3,35.9-13.6,11.6-26.7,21.6-39.5,29.8v.8c-4.8,2.7-8.8,5.1-11.8,7.2s-5.7,4.2-8.1,6.5-3.6,4.4-3.6,6.4l.2.2h0Z"/>
  <path d="M595.2,390l-1-30.1,23.4-13.3,152-9.6c.3,5.2,1,10.9,2,17.5.9,6.5,1.9,11.7,2.8,15.6-23.9,2-44.5,3.6-62,5.2s-32.4,2.8-44.7,4c-12.3,1.1-22.5,2.2-30.8,3-8.2.9-15,1.8-20.1,2.5-5.2.8-9.4,1.6-12.7,2.4s-6.3,1.8-9,2.8h.1Z"/>
  <path d="M600.7,308.6l-.5-27,19.2-11.3,102.1-3.8c-1.3,4.8-2.4,10.3-3.3,16.6s-1.7,11.3-2,15.2c-18.1.9-33.4,1.8-46.1,2.5-12.5.8-22.8,1.6-30.9,2.1-8.1.6-14.6,1.3-19.6,1.8s-8.9,1.1-11.8,1.8c-2.8.6-5.2,1.3-7.2,2h0l.1.1Z"/>
  <path d="M661.6,139.5l36.8-16c3.5,9.4,7,19.7,10.3,30.8s5.9,20.9,7.9,29.3l-38.4,19.2c-1.5-8.3-3.8-18.5-7.1-30.6s-6.5-22.9-9.5-32.6h0v-.1Z"/>
  <path d="M729.8,316.8l33.7-17.9c7.5,8.3,14.9,17.3,22.3,27,7.4,9.6,14.2,19.1,20.3,28.5s11.1,17.9,15.1,25.6l-35.7,21.6c-3.3-7.6-8.1-16.4-14.2-26.3s-12.7-20-19.9-30.3-14.4-19.7-21.5-28.2h-.1Z"/>
  <path d="M989.2,357.5c12.6-2,27.1-4.4,43.3-7.3,16.3-2.9,33.3-6,51.3-9.6,17.9-3.4,35.3-6.9,52.4-10.3l2.9,40.3c-16.2,3.5-32.6,7.1-49.2,10.6-16.7,3.4-32.7,6.8-48.5,10-15.6,3.2-30,6-42.9,8.6l-9.4-42.4h0l.1.1Z"/>
  <rect x="1010" y="251.2" width="35.4" height="118.2"/>
  <rect x="1015.1" y="137.4" width="101.1" height="34.2"/>
  <rect x="1059.1" y="233.9" width="37.1" height="133.1"/>
  <rect x="1077.5" y="262.8" width="53" height="37.9"/>
  <path d="M1131.9,123.4h39.5c-.7,22.8-.6,45.6,0,68.2.8,22.6,2.2,44.2,4.2,64.4,2,20.3,4.4,38.2,7.2,54,2.8,15.6,5.9,28,9.4,37,3.3,9,6.9,13.4,10.4,13.4s3.9-4.3,5.2-12.7c1.4-8.4,2.3-21.7,2.8-39.6,4.1,4.7,9.2,9.4,15.2,13.9,6,4.6,11.6,7.9,16.6,10-1.6,19.3-4.2,34.1-7.6,44.3s-8.1,17.2-13.9,20.9c-5.7,3.8-13.1,5.6-22,5.6s-17.3-3.8-24.2-11.4-12.7-18-17.7-31.5c-5-13.4-9.1-29.1-12.3-47-3.2-17.9-5.7-37.3-7.6-58.2-1.9-20.8-3.2-42.5-4-64.9-.8-22.4-1.3-44.6-1.3-66.7v.2h.1v.1Z"/>
  <path d="M1174.6,143.1l26.7-19.7c4.3,3.3,8.6,7.2,13.2,11.4s8.8,8.4,12.5,12.7c3.9,4.3,6.8,8.2,9,12l-28.6,21.6c-2-3.8-4.7-7.8-8.2-12.3s-7.5-9-11.8-13.4c-4.3-4.6-8.5-8.5-12.8-12.1h0v-.2h0Z"/>
  <path d="M1493.2,239l40.3,12.1c-7.1,16.4-15.7,32.3-25.7,47.7-10,15.4-21.6,29.6-34.4,42.6-12.9,13-27.1,24-42.5,33-1.8-3.2-4.1-6.9-7-11.1-2.8-4.3-5.7-8.4-8.8-12.6s-5.7-7.5-8.2-10.2c13.6-7.2,26.3-16.3,37.6-27.2,11.4-11,21.3-23,29.6-35.9,8.3-13,14.8-25.7,19.2-38.3h0l-.1-.1Z"/>
  <rect x="1416.6" y="237" width="241.4" height="38.7"/>
  <polygon points="1428.8 152.2 1467.9 152.2 1467.9 184 1604.5 184 1604.5 152.2 1645.6 152.2 1645.6 217.9 1428.8 217.9 1428.8 152.2"/>
  <polygon points="1466.2 296.8 1641.8 296.8 1641.8 405.5 1601 405.5 1601 333.3 1505.2 333.3 1505.2 406.6 1466.2 406.6 1466.2 296.8"/>
  <rect x="1486.8" y="359.5" width="131" height="36.4"/>
  <rect x="1517.2" y="123" width="40" height="86.5"/>
  <path d="M1019.6,548.2v-9.1h33.4v-18.8h-25.4v-8.9h25.4v-15.7h-31.7v-9.1h74.2v9.1h-31.7v15.7h25.4v8.9h-25.4v18.8h33.4v9.1h-77.9.3ZM1074.2,485.9c-5.6-1.9-11.1-3.5-16.9-4.8-5.7-1.3-11.9-2.5-18.4-3.5l3.2-9.1c5.9.8,11.7,1.9,17.3,3.2,5.6,1.3,11.9,3.1,18.1,5.3l-3.6,8.9h.3Z"/>
  <path d="M1167.2,550.9l-9.1-3.6c1.1-2.8,2-5.7,2.8-8.8s1.5-6.4,2.1-9.7c.5-3.5.9-6.8,1.2-10.1l9.1.8c0,3.5-.4,7.1-.9,10.8s-1.2,7.3-2.1,10.8-1.9,6.8-2.9,9.7h-.1l-.1.1ZM1176.8,542.9v-27.2h-17.3v-8.4h39.8v8.4h-12.2v6.7h10.9v7.9h-10.9v12.8h-10.3v-.2ZM1162.3,504v-31.3h34.5v31.3h-24.4v-7.1h15v-4.8h-15v-6.4h15v-5.1h-15v23.3h-10.1v.1ZM1216.2,549.6c-6.9,0-12.9,0-18-.5-5.2-.4-9.6-1.1-13.2-2s-6.8-2.1-9.3-3.5-4.5-3.2-6.1-5.3c-1.7-2.1-2.9-4.5-4-7.5l5.1-3.9c.9,2.1,2.1,4,3.5,5.6s3.2,2.9,5.3,4c2.3,1.1,4.8,2.1,8,2.7,3.2.7,7.1,1.1,11.7,1.5,4.5.3,10.1.5,16.5.5h26l-.4,8.7h-24.9v-.3h-.2ZM1202.3,539.8l-4-8.5c3.6-1.1,6.8-2.5,9.3-4.1,2.5-1.7,4.5-3.6,6-6s2.1-5.1,2.1-8v-16.4h9.2v16.4c0,3.6-.7,6.9-2,9.9s-2.9,5.5-5.1,7.5-4.5,3.9-7.2,5.5c-2.7,1.5-5.5,2.8-8.1,3.7h-.3.1ZM1199.7,481v-8.4h41.4v8.4h-41.4ZM1202,522.3v-36.6h36.6v36.6h-9.5v-29h-17.8v29h-9.3,0ZM1222,490.7l-9.7-1.7c.8-2.4,1.5-4.7,2.1-7.2.5-2.5,1.2-5.2,1.7-7.9l9.7,1.9c-.5,2.8-1.1,5.5-1.7,7.9-.5,2.5-1.2,4.8-2.1,7.2h0v-.2ZM1236.2,540c-2.4-2-4.7-3.6-7.2-5.3s-4.8-3.2-7.2-4.5-4.7-2.8-7.1-4l6.1-6.7c2.4,1.2,4.5,2.5,6.8,3.7s4.3,2.7,6.5,4.1,4.4,3.2,6.9,5.1l-5.1,7.6h.3Z"/>
  <polygon class="cls-3" points="573 184.6 573 195.4 624 206.9 573 218.5 573 220.9 1645.6 219.7 1645.6 183.4 573 184.6"/>
</svg>