<?xml version="1.0" encoding="UTF-8"?>
<svg xmlns="http://www.w3.org/2000/svg" viewBox="0 0 1024 1024">
  <defs>
    <style>
      .cls-1 {
        fill: none;
      }
    </style>
  </defs>
  <g id="_图层_1" data-name="图层 1">
    <polygon points="547.48 825.4 547.48 766.3 547.48 313.95 476.52 313.95 476.52 766.3 476.52 825.4 476.52 954.5 476.52 1002.37 476.52 1003.2 479.48 1003.2 544.52 1003.2 547.48 1003.2 547.48 1002.37 547.48 954.5 547.48 825.4"/>
    <rect x="433.11" y="171.69" width="157.78" height="168.89"/>
    <rect x="412.75" y="198.32" width="247.24" height="115.63"/>
    <rect x="278.88" y="159.47" width="109.06" height="193.32"/>
    <g>
      <path d="M193.89,511.83c0,154.94,110.78,283.98,257.44,312.3v-44.84c-122.25-27.61-213.55-136.87-213.55-267.47,0-13.87,1.04-27.5,3.03-40.82v-125.52c-29.75,48.4-46.92,105.36-46.92,166.34Z"/>
      <path d="M793.61,363.8c5.58,20.47,8.57,42,8.57,64.23,0,30.66-5.68,59.98-16.01,87.01-1.48,129.17-92.27,236.87-213.51,264.25v44.84c146.67-28.32,257.44-157.37,257.44-312.3,0-53.45-13.2-103.81-36.49-148.03Z"/>
      <path d="M674.48,238.3c-5.3-3.16-10.71-6.16-16.21-9.01-30-15.09-63.88-23.6-99.75-23.6-49.66,0-95.51,16.29-132.52,43.8v1.89c27.05-8.93,55.96-13.78,86-13.78,130.81,0,240.21,91.6,267.6,214.15.83-7.8,1.26-15.71,1.26-23.73,0-80.3-42.57-150.65-106.37-189.73Z"/>
    </g>
    <g>
      <path d="M433.67,352.32h-21.45v30.98h-.05v12.46h-123.9c-1.45,2.97-2.85,5.96-4.18,8.99h28.17v78.52h-48.15c-.6,7.07-.93,14.22-.93,21.45h49.08v78.52h-36.43c2.43,7.31,5.19,14.46,8.26,21.45h28.17v48.43c6.59,8.86,13.76,17.25,21.45,25.14v-73.57h78.52v78.52h-73.57c7.92,7.69,16.33,14.86,25.21,21.45h48.35v28.05c6.99,3.06,14.14,5.82,21.45,8.24v-36.29h31.42v-21.45h-31.42v-78.52h31.42v-21.45h-31.42v-78.52h31.42v-21.45h-31.42v-78.52h31.42v-21.45h-31.42v-30.98ZM412.23,583.24h-78.52v-78.52h78.52v78.52ZM412.23,483.27h-78.52v-78.52h78.52v78.52Z"/>
      <path d="M733.59,504.72h27.24c0-7.23-.33-14.38-.93-21.45h-26.31v-78.52h6.32c-7.49-17.05-16.83-33.09-27.77-47.88v26.44h-78.52v-63.15h-21.45v63.15h-52.86v21.45h52.86v78.52h-52.86v21.45h52.86v78.52h-52.86v21.45h52.86v78.52h-52.86v21.45h52.86v27.88c7.34-3.23,14.5-6.81,21.45-10.71v-17.17h26.51c8.88-6.59,17.3-13.76,25.21-21.45h-51.72v-78.52h78.52v47.88c8.04-10.87,15.23-22.41,21.45-34.54v-13.34h6.32c3.07-6.99,5.83-14.14,8.26-21.45h-14.58v-78.52ZM712.14,583.24h-78.52v-78.52h78.52v78.52ZM712.14,483.27h-78.52v-78.52h78.52v78.52Z"/>
    </g>
    <g>
      <path class="cls-1" d="M380.82,52.69v28.38c84.06-25.58,175.4-26.65,262.35-.1v-28.29h-262.35Z"/>
      <path class="cls-1" d="M902.03,737.08c-22.85,39.57-50.81,74.35-82.55,104.01l24.79,14.31,131.18-227.2-24.7-14.26c-9.83,42.2-25.93,83.68-48.72,123.14Z"/>
      <path class="cls-1" d="M73.35,613.89l-24.79,14.31,131.18,227.2,24.8-14.32c-66.49-62-111.27-141.62-131.19-227.2Z"/>
      <path d="M380.82,943.03v-37.96c-25.94-8.69-51.41-20.08-76.02-34.29-123.45-71.27-196.34-196.47-206.12-328.66-.07-.99-.14-1.98-.21-2.97-.04-.55-.07-1.1-.1-1.65-2.26-36.04.15-72.55,7.52-108.6l-32.63-18.84-24.71-14.27,131.18-227.2,24.89,14.37,32.45,18.74c1.23-1.09,2.48-2.18,3.72-3.26v-46.22c-4.61,3.48-9.17,7.04-13.66,10.7l-60.72-35.06L6.63,404.62l60.72,35.06c-5.88,36.24-7.22,72.77-4.25,108.8,0,.05,0,.09.01.14.08,1.03.19,2.06.28,3.09.96,10.97,2.29,21.84,4.02,32.58l-60.77,35.09,159.78,276.75,60.82-35.12c37.18,30.38,79.31,54.92,124.98,72.26v69.94s99.12,0,99.12,0v-31.9h-70.51v-28.28ZM179.73,855.4l-131.18-227.2,24.79-14.31c19.91,85.58,64.69,165.2,131.19,227.2l-24.8,14.32Z"/>
      <path d="M956.6,584.29c3.79-23.5,5.76-47.62,5.76-72.19,0-17.08-.97-33.93-2.82-50.51-.12-1.04-.22-2.08-.34-3.12-.03-.26-.07-.52-.1-.78-.73-6-1.58-11.99-2.55-17.95h.02s60.81-35.12,60.81-35.12l-159.78-276.75-60.77,35.09c-18.46-15.03-38.35-28.8-59.64-41.09-21.28-12.29-43.15-22.63-65.4-31.1V20.79h-319.57v70.04c-20.64,7.82-40.74,17.18-60.11,27.99h88.72c83.55-27.85,175.63-29.13,262.35-.09,25.94,8.69,51.41,20.08,76.02,34.29s47.21,30.57,67.71,48.69l32.48-18.75,24.89-14.37,131.18,227.2-24.71,14.27-32.69,18.87c1.75,8.61,3.23,17.32,4.44,26.11.16,1.14.3,2.27.45,3.41.19,1.47.38,2.93.55,4.4.24,2,.46,4,.67,6.01.05.51.11,1.01.16,1.52,3.64,35.9,2.63,72.42-3.3,108.61-.16,1-.33,2.01-.5,3.01-.25,1.47-.51,2.95-.77,4.42-.46,2.53-.94,5.06-1.44,7.58,0,.04-.02.09-.03.13-8.68,42.84-24.33,85.03-47.39,124.97-52.72,91.32-134.96,154.98-227.7,185.89v66.31h-70.51v31.9h99.12v-69.94c45.67-17.34,87.81-41.88,124.98-72.26l60.82,35.12,159.78-276.75-60.77-35.09h0ZM380.82,81.08v-28.38h262.35v28.29c-86.95-26.55-178.29-25.48-262.35.1ZM975.45,628.2l-131.18,227.2-24.79-14.31c31.74-29.66,59.7-64.43,82.55-104.01,22.78-39.46,38.89-80.95,48.72-123.14l24.7,14.26Z"/>
    </g>
  </g>
  <g id="_图层_2" data-name="图层 2">
    <circle class="cls-1" cx="512" cy="532.2" r="450.36"/>
    <circle class="cls-1" cx="512" cy="532.2" r="136.34"/>
    <circle class="cls-1" cx="512" cy="532.2" r="26.43"/>
  </g>
</svg>