<?xml version="1.0" encoding="UTF-8"?>
<svg id="_图层_1" data-name="图层 1" xmlns="http://www.w3.org/2000/svg" xmlns:xlink="http://www.w3.org/1999/xlink" viewBox="0 0 1024 1024">
  <defs>
    <style>
      .cls-1 {
        fill: #61822d;
        opacity: .65;
      }

      .cls-2 {
        fill: none;
        stroke: url(#_未命名的渐变_224);
        stroke-miterlimit: 10;
        stroke-width: 15px;
      }
    </style>
    <linearGradient id="_未命名的渐变_224" data-name="未命名的渐变 224" x1="813.32" y1="201.67" x2="74.99" y2="939.99" gradientUnits="userSpaceOnUse">
      <stop offset="0" stop-color="#276541"/>
      <stop offset="1" stop-color="#29b122" stop-opacity=".75"/>
    </linearGradient>
  </defs>
  <path class="cls-1" d="M776.17,318.06c-2.19-43.19-37.28-78.28-80.46-80.46-50.44-2.56-91.87,38.88-89.31,89.31,2.19,43.19,37.28,78.28,80.46,80.46,50.44,2.56,91.87-38.88,89.31-89.31Z"/>
  <path class="cls-2" d="M87,512v425s425,0,425,0c77.43,0,150.01-20.71,212.53-56.89l-212.53-368.11h425s0,0,0,0c0-234.72-190.28-425-425-425h0c-234.72,0-425,190.28-425,425ZM606.4,326.9c-2.56-50.44,38.88-91.87,89.31-89.31,43.19,2.19,78.28,37.28,80.46,80.46,2.56,50.44-38.88,91.87-89.31,89.31-43.19-2.19-78.28-37.28-80.46-80.46ZM518.11,322.48c0-37.83,16.49-71.8,42.66-95.15l30.12,30.12c-18.51,15.59-30.28,38.93-30.28,65.03,0,26.1,11.77,49.44,30.28,65.03l-30.12,30.12c-26.17-23.35-42.66-57.32-42.66-95.15ZM433.11,322.48c0-61.3,25.97-116.53,67.49-155.32l30.07,30.07c-33.84,31.07-55.06,75.68-55.06,125.25,0,49.57,21.22,94.17,55.06,125.25l-30.07,30.07c-41.53-38.78-67.49-94.01-67.49-155.32Z"/>
</svg>